<svg xmlns="http://www.w3.org/2000/svg" viewBox="0 0 87 75.23"><defs><style>.cls-1{fill:#fff;}.cls-2{fill:#c9262c;stroke:#fff;stroke-miterlimit:10;stroke-width:2px;fill-rule:evenodd;}</style></defs><g id="Capa_2" data-name="Capa 2"><g id="Layer_1" data-name="Layer 1"><rect class="cls-1" x="16.08" y="5.23" width="47.9" height="67.91"/><path class="cls-2" d="M57.18,69.22c-.07-.46-.15-.89-.24-1.31a12.51,12.51,0,0,1,.22-4.17s-1.88-.8-2.28-2.1a7,7,0,0,1,.33-4.24,5.5,5.5,0,0,0,.17-3.55c1.94-.7,2.37,2,3.51,3.19a4.34,4.34,0,0,0,3.32,1,1.49,1.49,0,0,1-.26-.28.88.88,0,0,1-.12-.32,3.79,3.79,0,0,0,3.88-1.39,6.29,6.29,0,0,0,1.12-3.31,5.34,5.34,0,0,1-2,2.13,1.61,1.61,0,0,0,.32-1.1,2.43,2.43,0,0,1-2.11,1c-1.85-.1-2.17-2.63-4.13-3S55.39,53,55.15,53.2a6.31,6.31,0,0,0-.78-1.35C53,50,52.17,49.67,51.86,49.6l-1.74-.41a1.68,1.68,0,0,0,.09-.32,1.59,1.59,0,0,0-.92-1.61,4.25,4.25,0,0,0,.3-1.75S48,44,46.8,44a2.92,2.92,0,0,1-.34-1.53c0-1.13.55-3,.2-4a1.15,1.15,0,0,0-.83-.6c-.08-.13-.36-.56-.45-.68s-.18,0-.18,0a1,1,0,0,1-.15-.69.68.68,0,0,0,.86.34,1.07,1.07,0,0,1,.87-.07.82.82,0,0,0-1-.35,1,1,0,0,1-.63,0c.11-.06.34-.37.2-.59a.9.9,0,0,1-.18-.44,1.16,1.16,0,0,0,0-.29,10.46,10.46,0,0,0,1.41-.36A3.11,3.11,0,0,0,46,33.4a2.67,2.67,0,0,0-1.87-.49s-.3-.42-.45-.33a2.58,2.58,0,0,0-.31.23s-.24-.43-.57-.18a5.07,5.07,0,0,0-.68.64L43,34.55l-.07.66.12.21-.16.56.2.1a1.16,1.16,0,0,0,.08.5l0,.19.08.26.49.09v.19l-2.57.09-.12,0c0-.47-.71-.82-.71-.82a1.84,1.84,0,0,0,.08-.35c0-.24-.39-.5-.54-.62a2.61,2.61,0,0,1-.71-.74,3.92,3.92,0,0,1-.28-.9,1.52,1.52,0,0,0-.95-.88l-2.92-4.83a2.51,2.51,0,0,1,1.54-2.68c2.08-.88,9.64,4.8,9.55-.13a6.34,6.34,0,0,0-1-2.69c.6-2.52,4.1-2.32,8.47.43,1.53.68,6,3.86,7.61,3.63,3.31-.46,2.16-3.93,2.16-3.93a50.57,50.57,0,0,1-6.88-4.47s.18,1.82-1.58,1.83c-5.23,0-14.19-13.91-19.25-9.65-1.06.9-.85,3-.85,3-3.86,1-4-2.93-9-.87l-.5-.81a.28.28,0,0,0-.35.07.55.55,0,0,0-.16.43l13,21.38,0,.47a1.28,1.28,0,0,0,.5.91c.1.09.18.07.27.17s.18,1.53.44,1.8.36.27.5.24a5.8,5.8,0,0,0,.74,1.57c.25.26.48.15.79.26l.1,0,1.21,2a1.05,1.05,0,0,1-.86.4c-.32,0-.5.1-.83.1a2.87,2.87,0,0,0-.41,0,5.3,5.3,0,0,0-.46-1.26,4.92,4.92,0,0,0-1.53-1.6,2.67,2.67,0,0,1,1.37.22,3.34,3.34,0,0,0-1.81-1.82,1.49,1.49,0,0,1,.57-.16A5.68,5.68,0,0,0,36.06,36c-1-.12-1.53.15-1.63,0s.42-.66.42-.66a1.06,1.06,0,0,0-.52,0,.94.94,0,0,0-.35.25c-.17-.25.47-.81.47-.81a2.16,2.16,0,0,0-1.2.44,2.61,2.61,0,0,0-.4.84s-.3-1.21-.4-.69-.29.7-.33,1a1.43,1.43,0,0,0,0,.48l-1.78,1.49-.12.74-2.16,2.19a1.5,1.5,0,0,0-.37,0,2.47,2.47,0,0,0-.5.57,1.26,1.26,0,0,0,0,.28c0,.1.26,1.18.27,1.23s.26.16.38.16H28a1.62,1.62,0,0,0,.08.38s.35.33.51.31.55-.56.87-.69l.11.15.59-.35,0-.22a1.08,1.08,0,0,1,.72.12,2.1,2.1,0,0,0,1.94.08c.82-.31,1.3-1.14,1.66-1.11s.64,1.15.43,5.15v.17c-1.64-.43-3.93-1.16-4.52-.89a1.55,1.55,0,0,0-.89.93,1.73,1.73,0,0,1-.1.88c-.17.44-1,1.95-1.22,2.29s-.75,1-.41,1.69c.24.48.48.7.15,1.4,0,0,.63,2.23,1.14,2.58,0,0,.95-2.12.67-2.64s-.74-.68-.75-.9a.54.54,0,0,1,.33-.55,1.47,1.47,0,0,1-.15-1.11c.2-.49,1.43-2.53,1.91-2.48.9.11,3.36,3.07,3.57,3.29s.16.19.26.29c-.84.68-1.66,1.35-1.71,1.38a.86.86,0,0,0-.38.47l-.25,1s.62.6.38,4.36c0,.59.84.74,1,1,.38.58.38.78,1.13,1a3.39,3.39,0,0,0,1.35.16s-.58-2-1.15-2.12c-.23,0-.63.32-.7.12a4.8,4.8,0,0,1-.11-.76s-.51-.08-.57-.88,0-2.52.33-2.8a6.42,6.42,0,0,1,1.94-.43,8.45,8.45,0,0,0,.73-.52,8.32,8.32,0,0,0,3.37,2.24,2.14,2.14,0,0,1-.63.31c-.38.12-.74.77-.58.95A4.69,4.69,0,0,0,41,58a1.81,1.81,0,0,0,.66-.47s.15.35.23.49.91-.1.91-.1a5,5,0,0,0,.2-.7,17.86,17.86,0,0,0,2.83.15,4.14,4.14,0,0,0,0,1.3c.18.7,1.68,2.29,1.31,4s-3.76,4.06-3.79,4.83.2.85.12,1.11a4.56,4.56,0,0,1-.5.82,5.11,5.11,0,0,0-.16,2.87H1V58.5l1.8-.11a17.15,17.15,0,0,0,5.07-.64,7.58,7.58,0,0,0,3.44-2,7.25,7.25,0,0,0,1.8-3.64,68.85,68.85,0,0,0,.4-9.29V30.39a68.85,68.85,0,0,0-.4-9.29,6.74,6.74,0,0,0-1.88-3.64,9.1,9.1,0,0,0-3.35-2.13,20.7,20.7,0,0,0-5.07-.54L1,14.68V1H55.6a61.78,61.78,0,0,1,7.6.32,18.86,18.86,0,0,1,5,1.6,23.63,23.63,0,0,1,6,5.24c2.21,2.56,3.27,6.3,3.27,11.21a19.87,19.87,0,0,1-2.13,9.3c-1.47,2.78-3.11,4.59-4.9,5.45A22.76,22.76,0,0,1,66,36.05c-1.14.31-2.61.64-4.41,1a14.83,14.83,0,0,1,5.47.75,17.8,17.8,0,0,1,4.74,3.52Q74.72,44,74.72,51.54v4.81l.08,1.71c0,2.35.74,3.53,2.21,3.53a2,2,0,0,0,2-1.07,8.18,8.18,0,0,0,.58-3.74v-8H86V58c0,5.13-1.31,9.09-3.84,12S76,74.2,71.37,74.2c-3.76,0-13.35.52-14.19-5m-16.62-26A.55.55,0,0,0,41,43c.09-.07.09-.23.2-.3s.43,0,.69.08.58.38.89.18a.84.84,0,0,0,.25-.34l.09.14A27.26,27.26,0,0,0,44,45.57l-.71.82a2,2,0,0,1-.18-.92c0-.46-1-.3-1-.3s-.12.42,0,.51.5.22.52.48-.15.22-.32.28c-.31-.49-.67-1.15-1-1.79.33,0,.58-.16.63-.32a2.12,2.12,0,0,1-1.22-.83Zm2.23-2.39c-.12-.09-.2,0-.27.05l-.84-1.4a4.23,4.23,0,0,0,.6.12c.19,0,.37.1.53.13,0,.31,0,.57,0,.76A1.93,1.93,0,0,0,42.79,40.79Z"/></g></g></svg>